<svg width="38"
     height="38"
     viewBox="0 0 38 38"
     fill="none"
     xmlns="http://www.w3.org/2000/svg">
    <path d="M37.7136 2.80136C37.5207 2.41768 37.2396 2.08524 36.8932 1.83137C36.5469 1.57749 36.1453 1.40942 35.7214 1.34096C30.1929 0.447802 24.6017 -0.000621037 19.0016 1.22153e-06C13.4015 -0.0008542 7.81027 0.44757 2.28184 1.34096C1.57142 1.45561 0.935613 1.84771 0.51418 2.43105C0.0927473 3.01439 -0.0798124 3.74123 0.0344408 4.45177C0.149085 5.16224 0.541142 5.79811 1.12443 6.21958C1.70772 6.64105 2.43449 6.81362 3.14497 6.69936C8.38826 5.85436 13.6907 5.42955 19.0016 5.42898C23.0552 5.42971 27.1051 5.67627 31.1288 6.16732L28.458 11.2923C27.1769 11.1783 25.8849 11.0751 24.5929 11.0045C24.2368 10.9855 23.8805 11.0368 23.5442 11.1556C23.2079 11.2744 22.8983 11.4583 22.6332 11.6967C22.368 11.9352 22.1524 12.2236 21.9987 12.5455C21.8451 12.8673 21.7563 13.2163 21.7376 13.5724C21.6991 14.2908 21.9473 14.9951 22.4278 15.5306C22.9082 16.066 23.5815 16.3888 24.2998 16.4281C26.1093 16.5258 27.9188 16.6724 29.7283 16.8678H29.7609C29.8729 16.876 29.9854 16.876 30.0974 16.8678C30.1661 16.8733 30.2351 16.8733 30.3037 16.8678C30.3933 16.8573 30.4822 16.841 30.5697 16.819C30.6559 16.8066 30.7411 16.7885 30.8249 16.7647L31.0474 16.6724C31.1343 16.6344 31.2211 16.6072 31.3026 16.5638C31.3818 16.5182 31.458 16.4674 31.5306 16.4118C31.6004 16.371 31.6675 16.3257 31.7314 16.2761C31.7969 16.2205 31.8585 16.1607 31.916 16.0969C31.9833 16.0358 32.0468 15.9705 32.106 15.9015C32.1506 15.849 32.1906 15.7926 32.2254 15.7332C32.2932 15.6433 32.3548 15.549 32.41 15.4509V15.4237L37.6973 5.26068C37.8934 4.88097 37.9971 4.46033 37.9999 4.03297C38.0028 3.60561 37.9047 3.18363 37.7136 2.80136Z" fill="#726BDF" />
    <path d="M27.2638 24.1861C27.2378 24.0372 27.2015 23.8902 27.1552 23.7463C27.1402 23.7129 27.1275 23.6784 27.1172 23.6432C27.0686 23.5116 27.0086 23.3844 26.9381 23.2632V23.2306L26.8946 23.1654C26.8225 23.0516 26.7427 22.9427 26.6558 22.8397L26.5961 22.7691C26.4887 22.6572 26.3745 22.552 26.2541 22.4542L26.1944 22.4162C26.0806 22.3289 25.9588 22.2526 25.8306 22.1882L25.7709 22.1557C25.6288 22.0901 25.4818 22.0357 25.3312 21.9928H25.2335C25.0731 21.9538 24.9096 21.9284 24.7449 21.9168C22.8558 21.8136 20.945 21.7593 19.0233 21.7593C17.6933 21.7593 16.3742 21.7919 15.0551 21.8462L12.3083 16.5692C12.786 16.5367 13.2583 16.4987 13.736 16.4715C14.0921 16.4528 14.441 16.364 14.7629 16.2103C15.0847 16.0566 15.3731 15.841 15.6115 15.5758C15.85 15.3106 16.0338 15.001 16.1526 14.6647C16.2713 14.3284 16.3227 13.972 16.3036 13.6159C16.2849 13.2597 16.1961 12.9107 16.0425 12.5889C15.8888 12.267 15.6732 11.9786 15.408 11.7402C15.1429 11.5017 14.8333 11.3178 14.497 11.199C14.1607 11.0803 13.8044 11.0289 13.4482 11.048C11.5266 11.1511 9.64831 11.3086 7.72662 11.5094C7.29189 11.5484 6.87296 11.6915 6.50535 11.9269C6.13775 12.1622 5.83231 12.4827 5.61494 12.8612C5.40862 13.2519 5.30078 13.6871 5.30078 14.1289C5.30078 14.5707 5.40862 15.0059 5.61494 15.3966L11.0434 25.8148C11.1118 25.9407 11.1879 26.0621 11.2714 26.1785L11.342 26.26C11.418 26.3568 11.5015 26.4476 11.5917 26.5314L11.7003 26.6237C11.7912 26.7025 11.8873 26.7751 11.988 26.8409L12.0803 26.9006C12.2117 26.9794 12.3497 27.0467 12.4928 27.1015L12.6231 27.1395C12.7351 27.176 12.8493 27.205 12.9651 27.2263H13.1117C13.2741 27.2428 13.4378 27.2428 13.6003 27.2263C15.4098 27.1286 17.2192 27.0797 19.0287 27.0797C19.4196 27.0797 19.8104 27.0797 20.2013 27.0797L16.5914 34.0343C16.2598 34.6729 16.1953 35.417 16.4121 36.1032C16.6289 36.7893 17.1093 37.3613 17.7476 37.6934C18.3855 38.0254 19.1291 38.0907 19.8151 37.8749C20.5011 37.6591 21.0734 37.1799 21.4064 36.5424L26.9869 25.8365C26.9857 25.8239 26.9857 25.8111 26.9869 25.7985C26.9973 25.7686 27.01 25.7395 27.0249 25.7116C27.0791 25.5877 27.1262 25.4608 27.1661 25.3316C27.1727 25.3019 27.1817 25.2729 27.1932 25.2447C27.2303 25.0878 27.254 24.928 27.2638 24.767C27.2668 24.7545 27.2668 24.7415 27.2638 24.729C27.2664 24.7146 27.2664 24.6999 27.2638 24.6856C27.2774 24.5193 27.2774 24.3523 27.2638 24.1861Z" fill="#726BDF" />
</svg>